<?xml version="1.0" encoding="utf-8" standalone="no"?>
<!DOCTYPE svg PUBLIC "-//W3C//DTD SVG 1.1//EN"
  "http://www.w3.org/Graphics/SVG/1.1/DTD/svg11.dtd">
<svg xmlns:xlink="http://www.w3.org/1999/xlink" width="864pt" height="648pt" viewBox="0 0 864 648" xmlns="http://www.w3.org/2000/svg" version="1.1">
 <metadata>
  <rdf:RDF xmlns:dc="http://purl.org/dc/elements/1.1/" xmlns:cc="http://creativecommons.org/ns#" xmlns:rdf="http://www.w3.org/1999/02/22-rdf-syntax-ns#">
   <cc:Work>
    <dc:type rdf:resource="http://purl.org/dc/dcmitype/StillImage"/>
    <dc:date>2025-08-08T16:47:09.923980</dc:date>
    <dc:format>image/svg+xml</dc:format>
    <dc:creator>
     <cc:Agent>
      <dc:title>Matplotlib v3.10.3, https://matplotlib.org/</dc:title>
     </cc:Agent>
    </dc:creator>
   </cc:Work>
  </rdf:RDF>
 </metadata>
 <defs>
  <style type="text/css">*{stroke-linejoin: round; stroke-linecap: butt}</style>
 </defs>
 <g id="figure_1">
  <g id="patch_1">
   <path d="M 0 648 
L 864 648 
L 864 0 
L 0 0 
z
" style="fill: #ffffff"/>
  </g>
  <g id="axes_1">
   <g id="patch_2">
    <path d="M 38.27 571.95411 
L 853.2 571.95411 
L 853.2 25.44 
L 38.27 25.44 
z
" style="fill: #ffffff"/>
   </g>
   <g id="patch_3">
    <path d="M 75.312273 571.95411 
L 100.214641 571.95411 
L 100.214641 51.464481 
L 75.312273 51.464481 
z
" clip-path="url(#p2c09241217)" style="fill: #4682b4"/>
   </g>
   <g id="patch_4">
    <path d="M 106.440233 571.95411 
L 131.342601 571.95411 
L 131.342601 333.557997 
L 106.440233 333.557997 
z
" clip-path="url(#p2c09241217)" style="fill: #4682b4"/>
   </g>
   <g id="patch_5">
    <path d="M 137.568193 571.95411 
L 162.470561 571.95411 
L 162.470561 494.819889 
L 137.568193 494.819889 
z
" clip-path="url(#p2c09241217)" style="fill: #4682b4"/>
   </g>
   <g id="patch_6">
    <path d="M 168.696154 571.95411 
L 193.598522 571.95411 
L 193.598522 516.614033 
L 168.696154 516.614033 
z
" clip-path="url(#p2c09241217)" style="fill: #4682b4"/>
   </g>
   <g id="patch_7">
    <path d="M 199.824114 571.95411 
L 224.726482 571.95411 
L 224.726482 503.198538 
L 199.824114 503.198538 
z
" clip-path="url(#p2c09241217)" style="fill: #4682b4"/>
   </g>
   <g id="patch_8">
    <path d="M 230.952074 571.95411 
L 255.854442 571.95411 
L 255.854442 511.483073 
L 230.952074 511.483073 
z
" clip-path="url(#p2c09241217)" style="fill: #4682b4"/>
   </g>
   <g id="patch_9">
    <path d="M 262.080034 571.95411 
L 286.982403 571.95411 
L 286.982403 545.690001 
L 262.080034 545.690001 
z
" clip-path="url(#p2c09241217)" style="fill: #4682b4"/>
   </g>
   <g id="patch_10">
    <path d="M 293.207995 571.95411 
L 318.110363 571.95411 
L 318.110363 464.719257 
L 293.207995 464.719257 
z
" clip-path="url(#p2c09241217)" style="fill: #4682b4"/>
   </g>
   <g id="patch_11">
    <path d="M 324.335955 571.95411 
L 349.238323 571.95411 
L 349.238323 491.924713 
L 324.335955 491.924713 
z
" clip-path="url(#p2c09241217)" style="fill: #4682b4"/>
   </g>
   <g id="patch_12">
    <path d="M 355.463915 571.95411 
L 380.366283 571.95411 
L 380.366283 537.432137 
L 355.463915 537.432137 
z
" clip-path="url(#p2c09241217)" style="fill: #4682b4"/>
   </g>
   <g id="patch_13">
    <path d="M 386.591875 571.95411 
L 411.494244 571.95411 
L 411.494244 499.503426 
L 386.591875 499.503426 
z
" clip-path="url(#p2c09241217)" style="fill: #4682b4"/>
   </g>
   <g id="patch_14">
    <path d="M 417.719836 571.95411 
L 442.622204 571.95411 
L 442.622204 285.044182 
L 417.719836 285.044182 
z
" clip-path="url(#p2c09241217)" style="fill: #4682b4"/>
   </g>
   <g id="patch_15">
    <path d="M 448.847796 571.95411 
L 473.750164 571.95411 
L 473.750164 453.82041 
L 448.847796 453.82041 
z
" clip-path="url(#p2c09241217)" style="fill: #4682b4"/>
   </g>
   <g id="patch_16">
    <path d="M 479.975756 571.95411 
L 504.878125 571.95411 
L 504.878125 495.722835 
L 479.975756 495.722835 
z
" clip-path="url(#p2c09241217)" style="fill: #4682b4"/>
   </g>
   <g id="patch_17">
    <path d="M 511.103717 571.95411 
L 536.006085 571.95411 
L 536.006085 517.816292 
L 511.103717 517.816292 
z
" clip-path="url(#p2c09241217)" style="fill: #4682b4"/>
   </g>
   <g id="patch_18">
    <path d="M 542.231677 571.95411 
L 567.134045 571.95411 
L 567.134045 547.13687 
L 542.231677 547.13687 
z
" clip-path="url(#p2c09241217)" style="fill: #4682b4"/>
   </g>
   <g id="patch_19">
    <path d="M 573.359637 571.95411 
L 598.262005 571.95411 
L 598.262005 512.838445 
L 573.359637 512.838445 
z
" clip-path="url(#p2c09241217)" style="fill: #4682b4"/>
   </g>
   <g id="patch_20">
    <path d="M 604.487597 571.95411 
L 629.389966 571.95411 
L 629.389966 543.385962 
L 604.487597 543.385962 
z
" clip-path="url(#p2c09241217)" style="fill: #4682b4"/>
   </g>
   <g id="patch_21">
    <path d="M 635.615558 571.95411 
L 660.517926 571.95411 
L 660.517926 521.403481 
L 635.615558 521.403481 
z
" clip-path="url(#p2c09241217)" style="fill: #4682b4"/>
   </g>
   <g id="patch_22">
    <path d="M 666.743518 571.95411 
L 691.645886 571.95411 
L 691.645886 525.008862 
L 666.743518 525.008862 
z
" clip-path="url(#p2c09241217)" style="fill: #4682b4"/>
   </g>
   <g id="patch_23">
    <path d="M 697.871478 571.95411 
L 722.773846 571.95411 
L 722.773846 533.751133 
L 697.871478 533.751133 
z
" clip-path="url(#p2c09241217)" style="fill: #4682b4"/>
   </g>
   <g id="patch_24">
    <path d="M 728.999439 571.95411 
L 753.901807 571.95411 
L 753.901807 511.767692 
L 728.999439 511.767692 
z
" clip-path="url(#p2c09241217)" style="fill: #4682b4"/>
   </g>
   <g id="patch_25">
    <path d="M 760.127399 571.95411 
L 785.029767 571.95411 
L 785.029767 527.056991 
L 760.127399 527.056991 
z
" clip-path="url(#p2c09241217)" style="fill: #4682b4"/>
   </g>
   <g id="patch_26">
    <path d="M 791.255359 571.95411 
L 816.157727 571.95411 
L 816.157727 540.523537 
L 791.255359 540.523537 
z
" clip-path="url(#p2c09241217)" style="fill: #4682b4"/>
   </g>
   <g id="matplotlib.axis_1">
    <g id="xtick_1">
     <g id="line2d_1">
      <defs>
       <path id="mad430dfb26" d="M 0 0 
L 0 3.5 
" style="stroke: #000000; stroke-width: 0.8"/>
      </defs>
      <g>
       <use xlink:href="#mad430dfb26" x="87.763457" y="571.95411" style="stroke: #000000; stroke-width: 0.8"/>
      </g>
     </g>
     <g id="text_1">
      <!-- TACCGGAT-TACCGGAT -->
      <g transform="translate(69.461268 620.196113) rotate(-45) scale(0.05 -0.05)">
       <defs>
        <path id="DejaVuSans-54" d="M -19 4666 
L 3928 4666 
L 3928 4134 
L 2272 4134 
L 2272 0 
L 1638 0 
L 1638 4134 
L -19 4134 
L -19 4666 
z
" transform="scale(0.015625)"/>
        <path id="DejaVuSans-41" d="M 2188 4044 
L 1331 1722 
L 3047 1722 
L 2188 4044 
z
M 1831 4666 
L 2547 4666 
L 4325 0 
L 3669 0 
L 3244 1197 
L 1141 1197 
L 716 0 
L 50 0 
L 1831 4666 
z
" transform="scale(0.015625)"/>
        <path id="DejaVuSans-43" d="M 4122 4306 
L 4122 3641 
Q 3803 3938 3442 4084 
Q 3081 4231 2675 4231 
Q 1875 4231 1450 3742 
Q 1025 3253 1025 2328 
Q 1025 1406 1450 917 
Q 1875 428 2675 428 
Q 3081 428 3442 575 
Q 3803 722 4122 1019 
L 4122 359 
Q 3791 134 3420 21 
Q 3050 -91 2638 -91 
Q 1578 -91 968 557 
Q 359 1206 359 2328 
Q 359 3453 968 4101 
Q 1578 4750 2638 4750 
Q 3056 4750 3426 4639 
Q 3797 4528 4122 4306 
z
" transform="scale(0.015625)"/>
        <path id="DejaVuSans-47" d="M 3809 666 
L 3809 1919 
L 2778 1919 
L 2778 2438 
L 4434 2438 
L 4434 434 
Q 4069 175 3628 42 
Q 3188 -91 2688 -91 
Q 1594 -91 976 548 
Q 359 1188 359 2328 
Q 359 3472 976 4111 
Q 1594 4750 2688 4750 
Q 3144 4750 3555 4637 
Q 3966 4525 4313 4306 
L 4313 3634 
Q 3963 3931 3569 4081 
Q 3175 4231 2741 4231 
Q 1884 4231 1454 3753 
Q 1025 3275 1025 2328 
Q 1025 1384 1454 906 
Q 1884 428 2741 428 
Q 3075 428 3337 486 
Q 3600 544 3809 666 
z
" transform="scale(0.015625)"/>
        <path id="DejaVuSans-2d" d="M 313 2009 
L 1997 2009 
L 1997 1497 
L 313 1497 
L 313 2009 
z
" transform="scale(0.015625)"/>
       </defs>
       <use xlink:href="#DejaVuSans-54"/>
       <use xlink:href="#DejaVuSans-41" transform="translate(53.333984 0)"/>
       <use xlink:href="#DejaVuSans-43" transform="translate(119.992188 0)"/>
       <use xlink:href="#DejaVuSans-43" transform="translate(189.816406 0)"/>
       <use xlink:href="#DejaVuSans-47" transform="translate(259.640625 0)"/>
       <use xlink:href="#DejaVuSans-47" transform="translate(337.130859 0)"/>
       <use xlink:href="#DejaVuSans-41" transform="translate(414.621094 0)"/>
       <use xlink:href="#DejaVuSans-54" transform="translate(475.279297 0)"/>
       <use xlink:href="#DejaVuSans-2d" transform="translate(527.238281 0)"/>
       <use xlink:href="#DejaVuSans-54" transform="translate(554.197266 0)"/>
       <use xlink:href="#DejaVuSans-41" transform="translate(607.53125 0)"/>
       <use xlink:href="#DejaVuSans-43" transform="translate(674.189453 0)"/>
       <use xlink:href="#DejaVuSans-43" transform="translate(744.013672 0)"/>
       <use xlink:href="#DejaVuSans-47" transform="translate(813.837891 0)"/>
       <use xlink:href="#DejaVuSans-47" transform="translate(891.328125 0)"/>
       <use xlink:href="#DejaVuSans-41" transform="translate(968.818359 0)"/>
       <use xlink:href="#DejaVuSans-54" transform="translate(1029.476562 0)"/>
      </g>
     </g>
    </g>
    <g id="xtick_2">
     <g id="line2d_2">
      <g>
       <use xlink:href="#mad430dfb26" x="118.891417" y="571.95411" style="stroke: #000000; stroke-width: 0.8"/>
      </g>
     </g>
     <g id="text_2">
      <!-- CTCTGGAT-CTCTGGAT -->
      <g transform="translate(100.558845 620.25688) rotate(-45) scale(0.05 -0.05)">
       <use xlink:href="#DejaVuSans-43"/>
       <use xlink:href="#DejaVuSans-54" transform="translate(69.824219 0)"/>
       <use xlink:href="#DejaVuSans-43" transform="translate(125.033203 0)"/>
       <use xlink:href="#DejaVuSans-54" transform="translate(194.857422 0)"/>
       <use xlink:href="#DejaVuSans-47" transform="translate(255.941406 0)"/>
       <use xlink:href="#DejaVuSans-47" transform="translate(333.431641 0)"/>
       <use xlink:href="#DejaVuSans-41" transform="translate(410.921875 0)"/>
       <use xlink:href="#DejaVuSans-54" transform="translate(471.580078 0)"/>
       <use xlink:href="#DejaVuSans-2d" transform="translate(523.539062 0)"/>
       <use xlink:href="#DejaVuSans-43" transform="translate(559.623047 0)"/>
       <use xlink:href="#DejaVuSans-54" transform="translate(629.447266 0)"/>
       <use xlink:href="#DejaVuSans-43" transform="translate(684.65625 0)"/>
       <use xlink:href="#DejaVuSans-54" transform="translate(754.480469 0)"/>
       <use xlink:href="#DejaVuSans-47" transform="translate(815.564453 0)"/>
       <use xlink:href="#DejaVuSans-47" transform="translate(893.054688 0)"/>
       <use xlink:href="#DejaVuSans-41" transform="translate(970.544922 0)"/>
       <use xlink:href="#DejaVuSans-54" transform="translate(1031.203125 0)"/>
      </g>
     </g>
    </g>
    <g id="xtick_3">
     <g id="line2d_3">
      <g>
       <use xlink:href="#mad430dfb26" x="150.019377" y="571.95411" style="stroke: #000000; stroke-width: 0.8"/>
      </g>
     </g>
     <g id="text_3">
      <!-- AGAGTCCA-AGAGTCCA -->
      <g transform="translate(131.064772 621.500946) rotate(-45) scale(0.05 -0.05)">
       <use xlink:href="#DejaVuSans-41"/>
       <use xlink:href="#DejaVuSans-47" transform="translate(66.658203 0)"/>
       <use xlink:href="#DejaVuSans-41" transform="translate(144.148438 0)"/>
       <use xlink:href="#DejaVuSans-47" transform="translate(210.806641 0)"/>
       <use xlink:href="#DejaVuSans-54" transform="translate(284.671875 0)"/>
       <use xlink:href="#DejaVuSans-43" transform="translate(339.880859 0)"/>
       <use xlink:href="#DejaVuSans-43" transform="translate(409.705078 0)"/>
       <use xlink:href="#DejaVuSans-41" transform="translate(479.529297 0)"/>
       <use xlink:href="#DejaVuSans-2d" transform="translate(545.6875 0)"/>
       <use xlink:href="#DejaVuSans-41" transform="translate(579.521484 0)"/>
       <use xlink:href="#DejaVuSans-47" transform="translate(646.179688 0)"/>
       <use xlink:href="#DejaVuSans-41" transform="translate(723.669922 0)"/>
       <use xlink:href="#DejaVuSans-47" transform="translate(790.328125 0)"/>
       <use xlink:href="#DejaVuSans-54" transform="translate(864.193359 0)"/>
       <use xlink:href="#DejaVuSans-43" transform="translate(919.402344 0)"/>
       <use xlink:href="#DejaVuSans-43" transform="translate(989.226562 0)"/>
       <use xlink:href="#DejaVuSans-41" transform="translate(1059.050781 0)"/>
      </g>
     </g>
    </g>
    <g id="xtick_4">
     <g id="line2d_4">
      <g>
       <use xlink:href="#mad430dfb26" x="181.147338" y="571.95411" style="stroke: #000000; stroke-width: 0.8"/>
      </g>
     </g>
     <g id="text_4">
      <!-- GTAGCGTA-GTAGCGTA -->
      <g transform="translate(162.483862 620.918688) rotate(-45) scale(0.05 -0.05)">
       <use xlink:href="#DejaVuSans-47"/>
       <use xlink:href="#DejaVuSans-54" transform="translate(73.865234 0)"/>
       <use xlink:href="#DejaVuSans-41" transform="translate(127.199219 0)"/>
       <use xlink:href="#DejaVuSans-47" transform="translate(193.857422 0)"/>
       <use xlink:href="#DejaVuSans-43" transform="translate(271.347656 0)"/>
       <use xlink:href="#DejaVuSans-47" transform="translate(341.171875 0)"/>
       <use xlink:href="#DejaVuSans-54" transform="translate(415.037109 0)"/>
       <use xlink:href="#DejaVuSans-41" transform="translate(468.371094 0)"/>
       <use xlink:href="#DejaVuSans-2d" transform="translate(534.529297 0)"/>
       <use xlink:href="#DejaVuSans-47" transform="translate(574.238281 0)"/>
       <use xlink:href="#DejaVuSans-54" transform="translate(648.103516 0)"/>
       <use xlink:href="#DejaVuSans-41" transform="translate(701.4375 0)"/>
       <use xlink:href="#DejaVuSans-47" transform="translate(768.095703 0)"/>
       <use xlink:href="#DejaVuSans-43" transform="translate(845.585938 0)"/>
       <use xlink:href="#DejaVuSans-47" transform="translate(915.410156 0)"/>
       <use xlink:href="#DejaVuSans-54" transform="translate(989.275391 0)"/>
       <use xlink:href="#DejaVuSans-41" transform="translate(1042.609375 0)"/>
      </g>
     </g>
    </g>
    <g id="xtick_5">
     <g id="line2d_5">
      <g>
       <use xlink:href="#mad430dfb26" x="212.275298" y="571.95411" style="stroke: #000000; stroke-width: 0.8"/>
      </g>
     </g>
     <g id="text_5">
      <!-- ATCATGCG-ATCATGCG -->
      <g transform="translate(193.836108 620.470117) rotate(-45) scale(0.05 -0.05)">
       <use xlink:href="#DejaVuSans-41"/>
       <use xlink:href="#DejaVuSans-54" transform="translate(60.658203 0)"/>
       <use xlink:href="#DejaVuSans-43" transform="translate(115.867188 0)"/>
       <use xlink:href="#DejaVuSans-41" transform="translate(185.691406 0)"/>
       <use xlink:href="#DejaVuSans-54" transform="translate(246.349609 0)"/>
       <use xlink:href="#DejaVuSans-47" transform="translate(307.433594 0)"/>
       <use xlink:href="#DejaVuSans-43" transform="translate(384.923828 0)"/>
       <use xlink:href="#DejaVuSans-47" transform="translate(454.748047 0)"/>
       <use xlink:href="#DejaVuSans-2d" transform="translate(532.238281 0)"/>
       <use xlink:href="#DejaVuSans-41" transform="translate(566.072266 0)"/>
       <use xlink:href="#DejaVuSans-54" transform="translate(626.730469 0)"/>
       <use xlink:href="#DejaVuSans-43" transform="translate(681.939453 0)"/>
       <use xlink:href="#DejaVuSans-41" transform="translate(751.763672 0)"/>
       <use xlink:href="#DejaVuSans-54" transform="translate(812.421875 0)"/>
       <use xlink:href="#DejaVuSans-47" transform="translate(873.505859 0)"/>
       <use xlink:href="#DejaVuSans-43" transform="translate(950.996094 0)"/>
       <use xlink:href="#DejaVuSans-47" transform="translate(1020.820312 0)"/>
      </g>
     </g>
    </g>
    <g id="xtick_6">
     <g id="line2d_6">
      <g>
       <use xlink:href="#mad430dfb26" x="243.403258" y="571.95411" style="stroke: #000000; stroke-width: 0.8"/>
      </g>
     </g>
     <g id="text_6">
      <!-- AACAGCGA-AACAGCGA -->
      <g transform="translate(223.756462 622.885329) rotate(-45) scale(0.05 -0.05)">
       <use xlink:href="#DejaVuSans-41"/>
       <use xlink:href="#DejaVuSans-41" transform="translate(71.158203 0)"/>
       <use xlink:href="#DejaVuSans-43" transform="translate(137.816406 0)"/>
       <use xlink:href="#DejaVuSans-41" transform="translate(207.640625 0)"/>
       <use xlink:href="#DejaVuSans-47" transform="translate(274.298828 0)"/>
       <use xlink:href="#DejaVuSans-43" transform="translate(351.789062 0)"/>
       <use xlink:href="#DejaVuSans-47" transform="translate(421.613281 0)"/>
       <use xlink:href="#DejaVuSans-41" transform="translate(499.103516 0)"/>
       <use xlink:href="#DejaVuSans-2d" transform="translate(565.261719 0)"/>
       <use xlink:href="#DejaVuSans-41" transform="translate(599.095703 0)"/>
       <use xlink:href="#DejaVuSans-41" transform="translate(670.253906 0)"/>
       <use xlink:href="#DejaVuSans-43" transform="translate(736.912109 0)"/>
       <use xlink:href="#DejaVuSans-41" transform="translate(806.736328 0)"/>
       <use xlink:href="#DejaVuSans-47" transform="translate(873.394531 0)"/>
       <use xlink:href="#DejaVuSans-43" transform="translate(950.884766 0)"/>
       <use xlink:href="#DejaVuSans-47" transform="translate(1020.708984 0)"/>
       <use xlink:href="#DejaVuSans-41" transform="translate(1098.199219 0)"/>
      </g>
     </g>
    </g>
    <g id="xtick_7">
     <g id="line2d_7">
      <g>
       <use xlink:href="#mad430dfb26" x="274.531218" y="571.95411" style="stroke: #000000; stroke-width: 0.8"/>
      </g>
     </g>
     <g id="text_7">
      <!-- TCGACAAG-TCGACAAG -->
      <g transform="translate(255.432982 621.788209) rotate(-45) scale(0.05 -0.05)">
       <use xlink:href="#DejaVuSans-54"/>
       <use xlink:href="#DejaVuSans-43" transform="translate(55.208984 0)"/>
       <use xlink:href="#DejaVuSans-47" transform="translate(125.033203 0)"/>
       <use xlink:href="#DejaVuSans-41" transform="translate(202.523438 0)"/>
       <use xlink:href="#DejaVuSans-43" transform="translate(269.181641 0)"/>
       <use xlink:href="#DejaVuSans-41" transform="translate(339.005859 0)"/>
       <use xlink:href="#DejaVuSans-41" transform="translate(410.164062 0)"/>
       <use xlink:href="#DejaVuSans-47" transform="translate(476.822266 0)"/>
       <use xlink:href="#DejaVuSans-2d" transform="translate(554.3125 0)"/>
       <use xlink:href="#DejaVuSans-54" transform="translate(581.271484 0)"/>
       <use xlink:href="#DejaVuSans-43" transform="translate(636.480469 0)"/>
       <use xlink:href="#DejaVuSans-47" transform="translate(706.304688 0)"/>
       <use xlink:href="#DejaVuSans-41" transform="translate(783.794922 0)"/>
       <use xlink:href="#DejaVuSans-43" transform="translate(850.453125 0)"/>
       <use xlink:href="#DejaVuSans-41" transform="translate(920.277344 0)"/>
       <use xlink:href="#DejaVuSans-41" transform="translate(991.435547 0)"/>
       <use xlink:href="#DejaVuSans-47" transform="translate(1058.09375 0)"/>
      </g>
     </g>
    </g>
    <g id="xtick_8">
     <g id="line2d_8">
      <g>
       <use xlink:href="#mad430dfb26" x="305.659179" y="571.95411" style="stroke: #000000; stroke-width: 0.8"/>
      </g>
     </g>
     <g id="text_8">
      <!-- TGTTCCGT-TGTTCCGT -->
      <g transform="translate(287.791198 619.327698) rotate(-45) scale(0.05 -0.05)">
       <use xlink:href="#DejaVuSans-54"/>
       <use xlink:href="#DejaVuSans-47" transform="translate(61.083984 0)"/>
       <use xlink:href="#DejaVuSans-54" transform="translate(134.949219 0)"/>
       <use xlink:href="#DejaVuSans-54" transform="translate(194.283203 0)"/>
       <use xlink:href="#DejaVuSans-43" transform="translate(249.492188 0)"/>
       <use xlink:href="#DejaVuSans-43" transform="translate(319.316406 0)"/>
       <use xlink:href="#DejaVuSans-47" transform="translate(389.140625 0)"/>
       <use xlink:href="#DejaVuSans-54" transform="translate(463.005859 0)"/>
       <use xlink:href="#DejaVuSans-2d" transform="translate(514.964844 0)"/>
       <use xlink:href="#DejaVuSans-54" transform="translate(541.923828 0)"/>
       <use xlink:href="#DejaVuSans-47" transform="translate(603.007812 0)"/>
       <use xlink:href="#DejaVuSans-54" transform="translate(676.873047 0)"/>
       <use xlink:href="#DejaVuSans-54" transform="translate(736.207031 0)"/>
       <use xlink:href="#DejaVuSans-43" transform="translate(791.416016 0)"/>
       <use xlink:href="#DejaVuSans-43" transform="translate(861.240234 0)"/>
       <use xlink:href="#DejaVuSans-47" transform="translate(931.064453 0)"/>
       <use xlink:href="#DejaVuSans-54" transform="translate(1004.929688 0)"/>
      </g>
     </g>
    </g>
    <g id="xtick_9">
     <g id="line2d_9">
      <g>
       <use xlink:href="#mad430dfb26" x="336.787139" y="571.95411" style="stroke: #000000; stroke-width: 0.8"/>
      </g>
     </g>
     <g id="text_9">
      <!-- TCGAGAGT-TCGAGAGT -->
      <g transform="translate(318.064001 621.038012) rotate(-45) scale(0.05 -0.05)">
       <use xlink:href="#DejaVuSans-54"/>
       <use xlink:href="#DejaVuSans-43" transform="translate(55.208984 0)"/>
       <use xlink:href="#DejaVuSans-47" transform="translate(125.033203 0)"/>
       <use xlink:href="#DejaVuSans-41" transform="translate(202.523438 0)"/>
       <use xlink:href="#DejaVuSans-47" transform="translate(269.181641 0)"/>
       <use xlink:href="#DejaVuSans-41" transform="translate(346.671875 0)"/>
       <use xlink:href="#DejaVuSans-47" transform="translate(413.330078 0)"/>
       <use xlink:href="#DejaVuSans-54" transform="translate(487.195312 0)"/>
       <use xlink:href="#DejaVuSans-2d" transform="translate(539.154297 0)"/>
       <use xlink:href="#DejaVuSans-54" transform="translate(566.113281 0)"/>
       <use xlink:href="#DejaVuSans-43" transform="translate(621.322266 0)"/>
       <use xlink:href="#DejaVuSans-47" transform="translate(691.146484 0)"/>
       <use xlink:href="#DejaVuSans-41" transform="translate(768.636719 0)"/>
       <use xlink:href="#DejaVuSans-47" transform="translate(835.294922 0)"/>
       <use xlink:href="#DejaVuSans-41" transform="translate(912.785156 0)"/>
       <use xlink:href="#DejaVuSans-47" transform="translate(979.443359 0)"/>
       <use xlink:href="#DejaVuSans-54" transform="translate(1053.308594 0)"/>
      </g>
     </g>
    </g>
    <g id="xtick_10">
     <g id="line2d_10">
      <g>
       <use xlink:href="#mad430dfb26" x="367.915099" y="571.95411" style="stroke: #000000; stroke-width: 0.8"/>
      </g>
     </g>
     <g id="text_10">
      <!-- CGGTAATC-CGGTAATC -->
      <g transform="translate(349.46707 620.487795) rotate(-45) scale(0.05 -0.05)">
       <use xlink:href="#DejaVuSans-43"/>
       <use xlink:href="#DejaVuSans-47" transform="translate(69.824219 0)"/>
       <use xlink:href="#DejaVuSans-47" transform="translate(147.314453 0)"/>
       <use xlink:href="#DejaVuSans-54" transform="translate(221.179688 0)"/>
       <use xlink:href="#DejaVuSans-41" transform="translate(274.513672 0)"/>
       <use xlink:href="#DejaVuSans-41" transform="translate(345.671875 0)"/>
       <use xlink:href="#DejaVuSans-54" transform="translate(406.330078 0)"/>
       <use xlink:href="#DejaVuSans-43" transform="translate(461.539062 0)"/>
       <use xlink:href="#DejaVuSans-2d" transform="translate(531.363281 0)"/>
       <use xlink:href="#DejaVuSans-43" transform="translate(567.447266 0)"/>
       <use xlink:href="#DejaVuSans-47" transform="translate(637.271484 0)"/>
       <use xlink:href="#DejaVuSans-47" transform="translate(714.761719 0)"/>
       <use xlink:href="#DejaVuSans-54" transform="translate(788.626953 0)"/>
       <use xlink:href="#DejaVuSans-41" transform="translate(841.960938 0)"/>
       <use xlink:href="#DejaVuSans-41" transform="translate(913.119141 0)"/>
       <use xlink:href="#DejaVuSans-54" transform="translate(973.777344 0)"/>
       <use xlink:href="#DejaVuSans-43" transform="translate(1028.986328 0)"/>
      </g>
     </g>
    </g>
    <g id="xtick_11">
     <g id="line2d_11">
      <g>
       <use xlink:href="#mad430dfb26" x="399.04306" y="571.95411" style="stroke: #000000; stroke-width: 0.8"/>
      </g>
     </g>
     <g id="text_11">
      <!-- TAGCCATG-TAGCCATG -->
      <g transform="translate(380.579562 620.518731) rotate(-45) scale(0.05 -0.05)">
       <use xlink:href="#DejaVuSans-54"/>
       <use xlink:href="#DejaVuSans-41" transform="translate(53.333984 0)"/>
       <use xlink:href="#DejaVuSans-47" transform="translate(119.992188 0)"/>
       <use xlink:href="#DejaVuSans-43" transform="translate(197.482422 0)"/>
       <use xlink:href="#DejaVuSans-43" transform="translate(267.306641 0)"/>
       <use xlink:href="#DejaVuSans-41" transform="translate(337.130859 0)"/>
       <use xlink:href="#DejaVuSans-54" transform="translate(397.789062 0)"/>
       <use xlink:href="#DejaVuSans-47" transform="translate(458.873047 0)"/>
       <use xlink:href="#DejaVuSans-2d" transform="translate(536.363281 0)"/>
       <use xlink:href="#DejaVuSans-54" transform="translate(563.322266 0)"/>
       <use xlink:href="#DejaVuSans-41" transform="translate(616.65625 0)"/>
       <use xlink:href="#DejaVuSans-47" transform="translate(683.314453 0)"/>
       <use xlink:href="#DejaVuSans-43" transform="translate(760.804688 0)"/>
       <use xlink:href="#DejaVuSans-43" transform="translate(830.628906 0)"/>
       <use xlink:href="#DejaVuSans-41" transform="translate(900.453125 0)"/>
       <use xlink:href="#DejaVuSans-54" transform="translate(961.111328 0)"/>
       <use xlink:href="#DejaVuSans-47" transform="translate(1022.195312 0)"/>
      </g>
     </g>
    </g>
    <g id="xtick_12">
     <g id="line2d_12">
      <g>
       <use xlink:href="#mad430dfb26" x="430.17102" y="571.95411" style="stroke: #000000; stroke-width: 0.8"/>
      </g>
     </g>
     <g id="text_12">
      <!-- TCTTCGAC-TCTTCGAC -->
      <g transform="translate(412.16659 619.600597) rotate(-45) scale(0.05 -0.05)">
       <use xlink:href="#DejaVuSans-54"/>
       <use xlink:href="#DejaVuSans-43" transform="translate(55.208984 0)"/>
       <use xlink:href="#DejaVuSans-54" transform="translate(125.033203 0)"/>
       <use xlink:href="#DejaVuSans-54" transform="translate(184.367188 0)"/>
       <use xlink:href="#DejaVuSans-43" transform="translate(239.576172 0)"/>
       <use xlink:href="#DejaVuSans-47" transform="translate(309.400391 0)"/>
       <use xlink:href="#DejaVuSans-41" transform="translate(386.890625 0)"/>
       <use xlink:href="#DejaVuSans-43" transform="translate(453.548828 0)"/>
       <use xlink:href="#DejaVuSans-2d" transform="translate(523.373047 0)"/>
       <use xlink:href="#DejaVuSans-54" transform="translate(550.332031 0)"/>
       <use xlink:href="#DejaVuSans-43" transform="translate(605.541016 0)"/>
       <use xlink:href="#DejaVuSans-54" transform="translate(675.365234 0)"/>
       <use xlink:href="#DejaVuSans-54" transform="translate(734.699219 0)"/>
       <use xlink:href="#DejaVuSans-43" transform="translate(789.908203 0)"/>
       <use xlink:href="#DejaVuSans-47" transform="translate(859.732422 0)"/>
       <use xlink:href="#DejaVuSans-41" transform="translate(937.222656 0)"/>
       <use xlink:href="#DejaVuSans-43" transform="translate(1003.880859 0)"/>
      </g>
     </g>
    </g>
    <g id="xtick_13">
     <g id="line2d_13">
      <g>
       <use xlink:href="#mad430dfb26" x="461.29898" y="571.95411" style="stroke: #000000; stroke-width: 0.8"/>
      </g>
     </g>
     <g id="text_13">
      <!-- CTAGCTCA-CTAGCTCA -->
      <g transform="translate(442.918347 620.353003) rotate(-45) scale(0.05 -0.05)">
       <use xlink:href="#DejaVuSans-43"/>
       <use xlink:href="#DejaVuSans-54" transform="translate(69.824219 0)"/>
       <use xlink:href="#DejaVuSans-41" transform="translate(123.158203 0)"/>
       <use xlink:href="#DejaVuSans-47" transform="translate(189.816406 0)"/>
       <use xlink:href="#DejaVuSans-43" transform="translate(267.306641 0)"/>
       <use xlink:href="#DejaVuSans-54" transform="translate(337.130859 0)"/>
       <use xlink:href="#DejaVuSans-43" transform="translate(392.339844 0)"/>
       <use xlink:href="#DejaVuSans-41" transform="translate(462.164062 0)"/>
       <use xlink:href="#DejaVuSans-2d" transform="translate(528.322266 0)"/>
       <use xlink:href="#DejaVuSans-43" transform="translate(564.40625 0)"/>
       <use xlink:href="#DejaVuSans-54" transform="translate(634.230469 0)"/>
       <use xlink:href="#DejaVuSans-41" transform="translate(687.564453 0)"/>
       <use xlink:href="#DejaVuSans-47" transform="translate(754.222656 0)"/>
       <use xlink:href="#DejaVuSans-43" transform="translate(831.712891 0)"/>
       <use xlink:href="#DejaVuSans-54" transform="translate(901.537109 0)"/>
       <use xlink:href="#DejaVuSans-43" transform="translate(956.746094 0)"/>
       <use xlink:href="#DejaVuSans-41" transform="translate(1026.570312 0)"/>
      </g>
     </g>
    </g>
    <g id="xtick_14">
     <g id="line2d_14">
      <g>
       <use xlink:href="#mad430dfb26" x="492.42694" y="571.95411" style="stroke: #000000; stroke-width: 0.8"/>
      </g>
     </g>
     <g id="text_14">
      <!-- TATGGCAC-TATGGCAC -->
      <g transform="translate(473.963443 620.518731) rotate(-45) scale(0.05 -0.05)">
       <use xlink:href="#DejaVuSans-54"/>
       <use xlink:href="#DejaVuSans-41" transform="translate(53.333984 0)"/>
       <use xlink:href="#DejaVuSans-54" transform="translate(113.992188 0)"/>
       <use xlink:href="#DejaVuSans-47" transform="translate(175.076172 0)"/>
       <use xlink:href="#DejaVuSans-47" transform="translate(252.566406 0)"/>
       <use xlink:href="#DejaVuSans-43" transform="translate(330.056641 0)"/>
       <use xlink:href="#DejaVuSans-41" transform="translate(399.880859 0)"/>
       <use xlink:href="#DejaVuSans-43" transform="translate(466.539062 0)"/>
       <use xlink:href="#DejaVuSans-2d" transform="translate(536.363281 0)"/>
       <use xlink:href="#DejaVuSans-54" transform="translate(563.322266 0)"/>
       <use xlink:href="#DejaVuSans-41" transform="translate(616.65625 0)"/>
       <use xlink:href="#DejaVuSans-54" transform="translate(677.314453 0)"/>
       <use xlink:href="#DejaVuSans-47" transform="translate(738.398438 0)"/>
       <use xlink:href="#DejaVuSans-47" transform="translate(815.888672 0)"/>
       <use xlink:href="#DejaVuSans-43" transform="translate(893.378906 0)"/>
       <use xlink:href="#DejaVuSans-41" transform="translate(963.203125 0)"/>
       <use xlink:href="#DejaVuSans-43" transform="translate(1029.861328 0)"/>
      </g>
     </g>
    </g>
    <g id="xtick_15">
     <g id="line2d_15">
      <g>
       <use xlink:href="#mad430dfb26" x="523.554901" y="571.95411" style="stroke: #000000; stroke-width: 0.8"/>
      </g>
     </g>
     <g id="text_15">
      <!-- ACGATCAG-ACGATCAG -->
      <g transform="translate(504.706362 621.288814) rotate(-45) scale(0.05 -0.05)">
       <use xlink:href="#DejaVuSans-41"/>
       <use xlink:href="#DejaVuSans-43" transform="translate(66.658203 0)"/>
       <use xlink:href="#DejaVuSans-47" transform="translate(136.482422 0)"/>
       <use xlink:href="#DejaVuSans-41" transform="translate(213.972656 0)"/>
       <use xlink:href="#DejaVuSans-54" transform="translate(274.630859 0)"/>
       <use xlink:href="#DejaVuSans-43" transform="translate(329.839844 0)"/>
       <use xlink:href="#DejaVuSans-41" transform="translate(399.664062 0)"/>
       <use xlink:href="#DejaVuSans-47" transform="translate(466.322266 0)"/>
       <use xlink:href="#DejaVuSans-2d" transform="translate(543.8125 0)"/>
       <use xlink:href="#DejaVuSans-41" transform="translate(577.646484 0)"/>
       <use xlink:href="#DejaVuSans-43" transform="translate(644.304688 0)"/>
       <use xlink:href="#DejaVuSans-47" transform="translate(714.128906 0)"/>
       <use xlink:href="#DejaVuSans-41" transform="translate(791.619141 0)"/>
       <use xlink:href="#DejaVuSans-54" transform="translate(852.277344 0)"/>
       <use xlink:href="#DejaVuSans-43" transform="translate(907.486328 0)"/>
       <use xlink:href="#DejaVuSans-41" transform="translate(977.310547 0)"/>
       <use xlink:href="#DejaVuSans-47" transform="translate(1043.96875 0)"/>
      </g>
     </g>
    </g>
    <g id="xtick_16">
     <g id="line2d_16">
      <g>
       <use xlink:href="#mad430dfb26" x="554.682861" y="571.95411" style="stroke: #000000; stroke-width: 0.8"/>
      </g>
     </g>
     <g id="text_16">
      <!-- GATCTTGC-GATCTTGC -->
      <g transform="translate(536.186771 620.583917) rotate(-45) scale(0.05 -0.05)">
       <use xlink:href="#DejaVuSans-47"/>
       <use xlink:href="#DejaVuSans-41" transform="translate(77.490234 0)"/>
       <use xlink:href="#DejaVuSans-54" transform="translate(138.148438 0)"/>
       <use xlink:href="#DejaVuSans-43" transform="translate(193.357422 0)"/>
       <use xlink:href="#DejaVuSans-54" transform="translate(263.181641 0)"/>
       <use xlink:href="#DejaVuSans-54" transform="translate(322.515625 0)"/>
       <use xlink:href="#DejaVuSans-47" transform="translate(383.599609 0)"/>
       <use xlink:href="#DejaVuSans-43" transform="translate(461.089844 0)"/>
       <use xlink:href="#DejaVuSans-2d" transform="translate(530.914062 0)"/>
       <use xlink:href="#DejaVuSans-47" transform="translate(570.623047 0)"/>
       <use xlink:href="#DejaVuSans-41" transform="translate(648.113281 0)"/>
       <use xlink:href="#DejaVuSans-54" transform="translate(708.771484 0)"/>
       <use xlink:href="#DejaVuSans-43" transform="translate(763.980469 0)"/>
       <use xlink:href="#DejaVuSans-54" transform="translate(833.804688 0)"/>
       <use xlink:href="#DejaVuSans-54" transform="translate(893.138672 0)"/>
       <use xlink:href="#DejaVuSans-47" transform="translate(954.222656 0)"/>
       <use xlink:href="#DejaVuSans-43" transform="translate(1031.712891 0)"/>
      </g>
     </g>
    </g>
    <g id="xtick_17">
     <g id="line2d_17">
      <g>
       <use xlink:href="#mad430dfb26" x="585.810821" y="571.95411" style="stroke: #000000; stroke-width: 0.8"/>
      </g>
     </g>
     <g id="text_17">
      <!-- AGGATAGC-AGGATAGC -->
      <g transform="translate(566.757884 621.697611) rotate(-45) scale(0.05 -0.05)">
       <use xlink:href="#DejaVuSans-41"/>
       <use xlink:href="#DejaVuSans-47" transform="translate(66.658203 0)"/>
       <use xlink:href="#DejaVuSans-47" transform="translate(144.148438 0)"/>
       <use xlink:href="#DejaVuSans-41" transform="translate(221.638672 0)"/>
       <use xlink:href="#DejaVuSans-54" transform="translate(282.296875 0)"/>
       <use xlink:href="#DejaVuSans-41" transform="translate(335.630859 0)"/>
       <use xlink:href="#DejaVuSans-47" transform="translate(402.289062 0)"/>
       <use xlink:href="#DejaVuSans-43" transform="translate(479.779297 0)"/>
       <use xlink:href="#DejaVuSans-2d" transform="translate(549.603516 0)"/>
       <use xlink:href="#DejaVuSans-41" transform="translate(583.4375 0)"/>
       <use xlink:href="#DejaVuSans-47" transform="translate(650.095703 0)"/>
       <use xlink:href="#DejaVuSans-47" transform="translate(727.585938 0)"/>
       <use xlink:href="#DejaVuSans-41" transform="translate(805.076172 0)"/>
       <use xlink:href="#DejaVuSans-54" transform="translate(865.734375 0)"/>
       <use xlink:href="#DejaVuSans-41" transform="translate(919.068359 0)"/>
       <use xlink:href="#DejaVuSans-47" transform="translate(985.726562 0)"/>
       <use xlink:href="#DejaVuSans-43" transform="translate(1063.216797 0)"/>
      </g>
     </g>
    </g>
    <g id="xtick_18">
     <g id="line2d_18">
      <g>
       <use xlink:href="#mad430dfb26" x="616.938782" y="571.95411" style="stroke: #000000; stroke-width: 0.8"/>
      </g>
     </g>
     <g id="text_18">
      <!-- CACTTCAC-CACTTCAC -->
      <g transform="translate(598.638803 620.191694) rotate(-45) scale(0.05 -0.05)">
       <use xlink:href="#DejaVuSans-43"/>
       <use xlink:href="#DejaVuSans-41" transform="translate(69.824219 0)"/>
       <use xlink:href="#DejaVuSans-43" transform="translate(136.482422 0)"/>
       <use xlink:href="#DejaVuSans-54" transform="translate(206.306641 0)"/>
       <use xlink:href="#DejaVuSans-54" transform="translate(265.640625 0)"/>
       <use xlink:href="#DejaVuSans-43" transform="translate(320.849609 0)"/>
       <use xlink:href="#DejaVuSans-41" transform="translate(390.673828 0)"/>
       <use xlink:href="#DejaVuSans-43" transform="translate(457.332031 0)"/>
       <use xlink:href="#DejaVuSans-2d" transform="translate(527.15625 0)"/>
       <use xlink:href="#DejaVuSans-43" transform="translate(563.240234 0)"/>
       <use xlink:href="#DejaVuSans-41" transform="translate(633.064453 0)"/>
       <use xlink:href="#DejaVuSans-43" transform="translate(699.722656 0)"/>
       <use xlink:href="#DejaVuSans-54" transform="translate(769.546875 0)"/>
       <use xlink:href="#DejaVuSans-54" transform="translate(828.880859 0)"/>
       <use xlink:href="#DejaVuSans-43" transform="translate(884.089844 0)"/>
       <use xlink:href="#DejaVuSans-41" transform="translate(953.914062 0)"/>
       <use xlink:href="#DejaVuSans-43" transform="translate(1020.572266 0)"/>
      </g>
     </g>
    </g>
    <g id="xtick_19">
     <g id="line2d_19">
      <g>
       <use xlink:href="#mad430dfb26" x="648.066742" y="571.95411" style="stroke: #000000; stroke-width: 0.8"/>
      </g>
     </g>
     <g id="text_19">
      <!-- GCTACTCT-GCTACTCT -->
      <g transform="translate(630.002649 619.719921) rotate(-45) scale(0.05 -0.05)">
       <use xlink:href="#DejaVuSans-47"/>
       <use xlink:href="#DejaVuSans-43" transform="translate(77.490234 0)"/>
       <use xlink:href="#DejaVuSans-54" transform="translate(147.314453 0)"/>
       <use xlink:href="#DejaVuSans-41" transform="translate(200.648438 0)"/>
       <use xlink:href="#DejaVuSans-43" transform="translate(267.306641 0)"/>
       <use xlink:href="#DejaVuSans-54" transform="translate(337.130859 0)"/>
       <use xlink:href="#DejaVuSans-43" transform="translate(392.339844 0)"/>
       <use xlink:href="#DejaVuSans-54" transform="translate(462.164062 0)"/>
       <use xlink:href="#DejaVuSans-2d" transform="translate(514.123047 0)"/>
       <use xlink:href="#DejaVuSans-47" transform="translate(553.832031 0)"/>
       <use xlink:href="#DejaVuSans-43" transform="translate(631.322266 0)"/>
       <use xlink:href="#DejaVuSans-54" transform="translate(701.146484 0)"/>
       <use xlink:href="#DejaVuSans-41" transform="translate(754.480469 0)"/>
       <use xlink:href="#DejaVuSans-43" transform="translate(821.138672 0)"/>
       <use xlink:href="#DejaVuSans-54" transform="translate(890.962891 0)"/>
       <use xlink:href="#DejaVuSans-43" transform="translate(946.171875 0)"/>
       <use xlink:href="#DejaVuSans-54" transform="translate(1015.996094 0)"/>
      </g>
     </g>
    </g>
    <g id="xtick_20">
     <g id="line2d_20">
      <g>
       <use xlink:href="#mad430dfb26" x="679.194702" y="571.95411" style="stroke: #000000; stroke-width: 0.8"/>
      </g>
     </g>
     <g id="text_20">
      <!-- ATCGTGGT-ATCGTGGT -->
      <g transform="translate(660.887542 620.206057) rotate(-45) scale(0.05 -0.05)">
       <use xlink:href="#DejaVuSans-41"/>
       <use xlink:href="#DejaVuSans-54" transform="translate(60.658203 0)"/>
       <use xlink:href="#DejaVuSans-43" transform="translate(115.867188 0)"/>
       <use xlink:href="#DejaVuSans-47" transform="translate(185.691406 0)"/>
       <use xlink:href="#DejaVuSans-54" transform="translate(259.556641 0)"/>
       <use xlink:href="#DejaVuSans-47" transform="translate(320.640625 0)"/>
       <use xlink:href="#DejaVuSans-47" transform="translate(398.130859 0)"/>
       <use xlink:href="#DejaVuSans-54" transform="translate(471.996094 0)"/>
       <use xlink:href="#DejaVuSans-2d" transform="translate(523.955078 0)"/>
       <use xlink:href="#DejaVuSans-41" transform="translate(557.789062 0)"/>
       <use xlink:href="#DejaVuSans-54" transform="translate(618.447266 0)"/>
       <use xlink:href="#DejaVuSans-43" transform="translate(673.65625 0)"/>
       <use xlink:href="#DejaVuSans-47" transform="translate(743.480469 0)"/>
       <use xlink:href="#DejaVuSans-54" transform="translate(817.345703 0)"/>
       <use xlink:href="#DejaVuSans-47" transform="translate(878.429688 0)"/>
       <use xlink:href="#DejaVuSans-47" transform="translate(955.919922 0)"/>
       <use xlink:href="#DejaVuSans-54" transform="translate(1029.785156 0)"/>
      </g>
     </g>
    </g>
    <g id="xtick_21">
     <g id="line2d_21">
      <g>
       <use xlink:href="#mad430dfb26" x="710.322662" y="571.95411" style="stroke: #000000; stroke-width: 0.8"/>
      </g>
     </g>
     <g id="text_21">
      <!-- CGATCGAT-CGATCGAT -->
      <g transform="translate(692.005006 620.227049) rotate(-45) scale(0.05 -0.05)">
       <use xlink:href="#DejaVuSans-43"/>
       <use xlink:href="#DejaVuSans-47" transform="translate(69.824219 0)"/>
       <use xlink:href="#DejaVuSans-41" transform="translate(147.314453 0)"/>
       <use xlink:href="#DejaVuSans-54" transform="translate(207.972656 0)"/>
       <use xlink:href="#DejaVuSans-43" transform="translate(263.181641 0)"/>
       <use xlink:href="#DejaVuSans-47" transform="translate(333.005859 0)"/>
       <use xlink:href="#DejaVuSans-41" transform="translate(410.496094 0)"/>
       <use xlink:href="#DejaVuSans-54" transform="translate(471.154297 0)"/>
       <use xlink:href="#DejaVuSans-2d" transform="translate(523.113281 0)"/>
       <use xlink:href="#DejaVuSans-43" transform="translate(559.197266 0)"/>
       <use xlink:href="#DejaVuSans-47" transform="translate(629.021484 0)"/>
       <use xlink:href="#DejaVuSans-41" transform="translate(706.511719 0)"/>
       <use xlink:href="#DejaVuSans-54" transform="translate(767.169922 0)"/>
       <use xlink:href="#DejaVuSans-43" transform="translate(822.378906 0)"/>
       <use xlink:href="#DejaVuSans-47" transform="translate(892.203125 0)"/>
       <use xlink:href="#DejaVuSans-41" transform="translate(969.693359 0)"/>
       <use xlink:href="#DejaVuSans-54" transform="translate(1030.351562 0)"/>
      </g>
     </g>
    </g>
    <g id="xtick_22">
     <g id="line2d_22">
      <g>
       <use xlink:href="#mad430dfb26" x="741.450623" y="571.95411" style="stroke: #000000; stroke-width: 0.8"/>
      </g>
     </g>
     <g id="text_22">
      <!-- GTCCTAAG-GTCCTAAG -->
      <g transform="translate(722.72638 621.040222) rotate(-45) scale(0.05 -0.05)">
       <use xlink:href="#DejaVuSans-47"/>
       <use xlink:href="#DejaVuSans-54" transform="translate(73.865234 0)"/>
       <use xlink:href="#DejaVuSans-43" transform="translate(129.074219 0)"/>
       <use xlink:href="#DejaVuSans-43" transform="translate(198.898438 0)"/>
       <use xlink:href="#DejaVuSans-54" transform="translate(268.722656 0)"/>
       <use xlink:href="#DejaVuSans-41" transform="translate(322.056641 0)"/>
       <use xlink:href="#DejaVuSans-41" transform="translate(393.214844 0)"/>
       <use xlink:href="#DejaVuSans-47" transform="translate(459.873047 0)"/>
       <use xlink:href="#DejaVuSans-2d" transform="translate(537.363281 0)"/>
       <use xlink:href="#DejaVuSans-47" transform="translate(577.072266 0)"/>
       <use xlink:href="#DejaVuSans-54" transform="translate(650.9375 0)"/>
       <use xlink:href="#DejaVuSans-43" transform="translate(706.146484 0)"/>
       <use xlink:href="#DejaVuSans-43" transform="translate(775.970703 0)"/>
       <use xlink:href="#DejaVuSans-54" transform="translate(845.794922 0)"/>
       <use xlink:href="#DejaVuSans-41" transform="translate(899.128906 0)"/>
       <use xlink:href="#DejaVuSans-41" transform="translate(970.287109 0)"/>
       <use xlink:href="#DejaVuSans-47" transform="translate(1036.945312 0)"/>
      </g>
     </g>
    </g>
    <g id="xtick_23">
     <g id="line2d_23">
      <g>
       <use xlink:href="#mad430dfb26" x="772.578583" y="571.95411" style="stroke: #000000; stroke-width: 0.8"/>
      </g>
     </g>
     <g id="text_23">
      <!-- GATCAAGG-GATCAAGG -->
      <g transform="translate(753.196399 622.356104) rotate(-45) scale(0.05 -0.05)">
       <use xlink:href="#DejaVuSans-47"/>
       <use xlink:href="#DejaVuSans-41" transform="translate(77.490234 0)"/>
       <use xlink:href="#DejaVuSans-54" transform="translate(138.148438 0)"/>
       <use xlink:href="#DejaVuSans-43" transform="translate(193.357422 0)"/>
       <use xlink:href="#DejaVuSans-41" transform="translate(263.181641 0)"/>
       <use xlink:href="#DejaVuSans-41" transform="translate(334.339844 0)"/>
       <use xlink:href="#DejaVuSans-47" transform="translate(400.998047 0)"/>
       <use xlink:href="#DejaVuSans-47" transform="translate(478.488281 0)"/>
       <use xlink:href="#DejaVuSans-2d" transform="translate(555.978516 0)"/>
       <use xlink:href="#DejaVuSans-47" transform="translate(595.6875 0)"/>
       <use xlink:href="#DejaVuSans-41" transform="translate(673.177734 0)"/>
       <use xlink:href="#DejaVuSans-54" transform="translate(733.835938 0)"/>
       <use xlink:href="#DejaVuSans-43" transform="translate(789.044922 0)"/>
       <use xlink:href="#DejaVuSans-41" transform="translate(858.869141 0)"/>
       <use xlink:href="#DejaVuSans-41" transform="translate(930.027344 0)"/>
       <use xlink:href="#DejaVuSans-47" transform="translate(996.685547 0)"/>
       <use xlink:href="#DejaVuSans-47" transform="translate(1074.175781 0)"/>
      </g>
     </g>
    </g>
    <g id="xtick_24">
     <g id="line2d_24">
      <g>
       <use xlink:href="#mad430dfb26" x="803.706543" y="571.95411" style="stroke: #000000; stroke-width: 0.8"/>
      </g>
     </g>
     <g id="text_24">
      <!-- TCGGATTC-TCGGATTC -->
      <g transform="translate(785.643556 619.717712) rotate(-45) scale(0.05 -0.05)">
       <use xlink:href="#DejaVuSans-54"/>
       <use xlink:href="#DejaVuSans-43" transform="translate(55.208984 0)"/>
       <use xlink:href="#DejaVuSans-47" transform="translate(125.033203 0)"/>
       <use xlink:href="#DejaVuSans-47" transform="translate(202.523438 0)"/>
       <use xlink:href="#DejaVuSans-41" transform="translate(280.013672 0)"/>
       <use xlink:href="#DejaVuSans-54" transform="translate(340.671875 0)"/>
       <use xlink:href="#DejaVuSans-54" transform="translate(400.005859 0)"/>
       <use xlink:href="#DejaVuSans-43" transform="translate(455.214844 0)"/>
       <use xlink:href="#DejaVuSans-2d" transform="translate(525.039062 0)"/>
       <use xlink:href="#DejaVuSans-54" transform="translate(551.998047 0)"/>
       <use xlink:href="#DejaVuSans-43" transform="translate(607.207031 0)"/>
       <use xlink:href="#DejaVuSans-47" transform="translate(677.03125 0)"/>
       <use xlink:href="#DejaVuSans-47" transform="translate(754.521484 0)"/>
       <use xlink:href="#DejaVuSans-41" transform="translate(832.011719 0)"/>
       <use xlink:href="#DejaVuSans-54" transform="translate(892.669922 0)"/>
       <use xlink:href="#DejaVuSans-54" transform="translate(952.003906 0)"/>
       <use xlink:href="#DejaVuSans-43" transform="translate(1007.212891 0)"/>
      </g>
     </g>
    </g>
    <g id="text_25">
     <!-- Index Pair -->
     <g transform="translate(421.081094 635.219047) scale(0.1 -0.1)">
      <defs>
       <path id="DejaVuSans-49" d="M 628 4666 
L 1259 4666 
L 1259 0 
L 628 0 
L 628 4666 
z
" transform="scale(0.015625)"/>
       <path id="DejaVuSans-6e" d="M 3513 2113 
L 3513 0 
L 2938 0 
L 2938 2094 
Q 2938 2591 2744 2837 
Q 2550 3084 2163 3084 
Q 1697 3084 1428 2787 
Q 1159 2491 1159 1978 
L 1159 0 
L 581 0 
L 581 3500 
L 1159 3500 
L 1159 2956 
Q 1366 3272 1645 3428 
Q 1925 3584 2291 3584 
Q 2894 3584 3203 3211 
Q 3513 2838 3513 2113 
z
" transform="scale(0.015625)"/>
       <path id="DejaVuSans-64" d="M 2906 2969 
L 2906 4863 
L 3481 4863 
L 3481 0 
L 2906 0 
L 2906 525 
Q 2725 213 2448 61 
Q 2172 -91 1784 -91 
Q 1150 -91 751 415 
Q 353 922 353 1747 
Q 353 2572 751 3078 
Q 1150 3584 1784 3584 
Q 2172 3584 2448 3432 
Q 2725 3281 2906 2969 
z
M 947 1747 
Q 947 1113 1208 752 
Q 1469 391 1925 391 
Q 2381 391 2643 752 
Q 2906 1113 2906 1747 
Q 2906 2381 2643 2742 
Q 2381 3103 1925 3103 
Q 1469 3103 1208 2742 
Q 947 2381 947 1747 
z
" transform="scale(0.015625)"/>
       <path id="DejaVuSans-65" d="M 3597 1894 
L 3597 1613 
L 953 1613 
Q 991 1019 1311 708 
Q 1631 397 2203 397 
Q 2534 397 2845 478 
Q 3156 559 3463 722 
L 3463 178 
Q 3153 47 2828 -22 
Q 2503 -91 2169 -91 
Q 1331 -91 842 396 
Q 353 884 353 1716 
Q 353 2575 817 3079 
Q 1281 3584 2069 3584 
Q 2775 3584 3186 3129 
Q 3597 2675 3597 1894 
z
M 3022 2063 
Q 3016 2534 2758 2815 
Q 2500 3097 2075 3097 
Q 1594 3097 1305 2825 
Q 1016 2553 972 2059 
L 3022 2063 
z
" transform="scale(0.015625)"/>
       <path id="DejaVuSans-78" d="M 3513 3500 
L 2247 1797 
L 3578 0 
L 2900 0 
L 1881 1375 
L 863 0 
L 184 0 
L 1544 1831 
L 300 3500 
L 978 3500 
L 1906 2253 
L 2834 3500 
L 3513 3500 
z
" transform="scale(0.015625)"/>
       <path id="DejaVuSans-20" transform="scale(0.015625)"/>
       <path id="DejaVuSans-50" d="M 1259 4147 
L 1259 2394 
L 2053 2394 
Q 2494 2394 2734 2622 
Q 2975 2850 2975 3272 
Q 2975 3691 2734 3919 
Q 2494 4147 2053 4147 
L 1259 4147 
z
M 628 4666 
L 2053 4666 
Q 2838 4666 3239 4311 
Q 3641 3956 3641 3272 
Q 3641 2581 3239 2228 
Q 2838 1875 2053 1875 
L 1259 1875 
L 1259 0 
L 628 0 
L 628 4666 
z
" transform="scale(0.015625)"/>
       <path id="DejaVuSans-61" d="M 2194 1759 
Q 1497 1759 1228 1600 
Q 959 1441 959 1056 
Q 959 750 1161 570 
Q 1363 391 1709 391 
Q 2188 391 2477 730 
Q 2766 1069 2766 1631 
L 2766 1759 
L 2194 1759 
z
M 3341 1997 
L 3341 0 
L 2766 0 
L 2766 531 
Q 2569 213 2275 61 
Q 1981 -91 1556 -91 
Q 1019 -91 701 211 
Q 384 513 384 1019 
Q 384 1609 779 1909 
Q 1175 2209 1959 2209 
L 2766 2209 
L 2766 2266 
Q 2766 2663 2505 2880 
Q 2244 3097 1772 3097 
Q 1472 3097 1187 3025 
Q 903 2953 641 2809 
L 641 3341 
Q 956 3463 1253 3523 
Q 1550 3584 1831 3584 
Q 2591 3584 2966 3190 
Q 3341 2797 3341 1997 
z
" transform="scale(0.015625)"/>
       <path id="DejaVuSans-69" d="M 603 3500 
L 1178 3500 
L 1178 0 
L 603 0 
L 603 3500 
z
M 603 4863 
L 1178 4863 
L 1178 4134 
L 603 4134 
L 603 4863 
z
" transform="scale(0.015625)"/>
       <path id="DejaVuSans-72" d="M 2631 2963 
Q 2534 3019 2420 3045 
Q 2306 3072 2169 3072 
Q 1681 3072 1420 2755 
Q 1159 2438 1159 1844 
L 1159 0 
L 581 0 
L 581 3500 
L 1159 3500 
L 1159 2956 
Q 1341 3275 1631 3429 
Q 1922 3584 2338 3584 
Q 2397 3584 2469 3576 
Q 2541 3569 2628 3553 
L 2631 2963 
z
" transform="scale(0.015625)"/>
      </defs>
      <use xlink:href="#DejaVuSans-49"/>
      <use xlink:href="#DejaVuSans-6e" transform="translate(29.492188 0)"/>
      <use xlink:href="#DejaVuSans-64" transform="translate(92.871094 0)"/>
      <use xlink:href="#DejaVuSans-65" transform="translate(156.347656 0)"/>
      <use xlink:href="#DejaVuSans-78" transform="translate(216.121094 0)"/>
      <use xlink:href="#DejaVuSans-20" transform="translate(275.300781 0)"/>
      <use xlink:href="#DejaVuSans-50" transform="translate(307.087891 0)"/>
      <use xlink:href="#DejaVuSans-61" transform="translate(362.890625 0)"/>
      <use xlink:href="#DejaVuSans-69" transform="translate(424.169922 0)"/>
      <use xlink:href="#DejaVuSans-72" transform="translate(451.953125 0)"/>
     </g>
    </g>
   </g>
   <g id="matplotlib.axis_2">
    <g id="ytick_1">
     <g id="line2d_25">
      <defs>
       <path id="m2cf91da7da" d="M 0 0 
L -3.5 0 
" style="stroke: #000000; stroke-width: 0.8"/>
      </defs>
      <g>
       <use xlink:href="#m2cf91da7da" x="38.27" y="571.95411" style="stroke: #000000; stroke-width: 0.8"/>
      </g>
     </g>
     <g id="text_26">
      <!-- 0 -->
      <g transform="translate(24.9075 575.753329) scale(0.1 -0.1)">
       <defs>
        <path id="DejaVuSans-30" d="M 2034 4250 
Q 1547 4250 1301 3770 
Q 1056 3291 1056 2328 
Q 1056 1369 1301 889 
Q 1547 409 2034 409 
Q 2525 409 2770 889 
Q 3016 1369 3016 2328 
Q 3016 3291 2770 3770 
Q 2525 4250 2034 4250 
z
M 2034 4750 
Q 2819 4750 3233 4129 
Q 3647 3509 3647 2328 
Q 3647 1150 3233 529 
Q 2819 -91 2034 -91 
Q 1250 -91 836 529 
Q 422 1150 422 2328 
Q 422 3509 836 4129 
Q 1250 4750 2034 4750 
z
" transform="scale(0.015625)"/>
       </defs>
       <use xlink:href="#DejaVuSans-30"/>
      </g>
     </g>
    </g>
    <g id="ytick_2">
     <g id="line2d_26">
      <g>
       <use xlink:href="#m2cf91da7da" x="38.27" y="503.794951" style="stroke: #000000; stroke-width: 0.8"/>
      </g>
     </g>
     <g id="text_27">
      <!-- 1 -->
      <g transform="translate(24.9075 507.59417) scale(0.1 -0.1)">
       <defs>
        <path id="DejaVuSans-31" d="M 794 531 
L 1825 531 
L 1825 4091 
L 703 3866 
L 703 4441 
L 1819 4666 
L 2450 4666 
L 2450 531 
L 3481 531 
L 3481 0 
L 794 0 
L 794 531 
z
" transform="scale(0.015625)"/>
       </defs>
       <use xlink:href="#DejaVuSans-31"/>
      </g>
     </g>
    </g>
    <g id="ytick_3">
     <g id="line2d_27">
      <g>
       <use xlink:href="#m2cf91da7da" x="38.27" y="435.635792" style="stroke: #000000; stroke-width: 0.8"/>
      </g>
     </g>
     <g id="text_28">
      <!-- 2 -->
      <g transform="translate(24.9075 439.435011) scale(0.1 -0.1)">
       <defs>
        <path id="DejaVuSans-32" d="M 1228 531 
L 3431 531 
L 3431 0 
L 469 0 
L 469 531 
Q 828 903 1448 1529 
Q 2069 2156 2228 2338 
Q 2531 2678 2651 2914 
Q 2772 3150 2772 3378 
Q 2772 3750 2511 3984 
Q 2250 4219 1831 4219 
Q 1534 4219 1204 4116 
Q 875 4013 500 3803 
L 500 4441 
Q 881 4594 1212 4672 
Q 1544 4750 1819 4750 
Q 2544 4750 2975 4387 
Q 3406 4025 3406 3419 
Q 3406 3131 3298 2873 
Q 3191 2616 2906 2266 
Q 2828 2175 2409 1742 
Q 1991 1309 1228 531 
z
" transform="scale(0.015625)"/>
       </defs>
       <use xlink:href="#DejaVuSans-32"/>
      </g>
     </g>
    </g>
    <g id="ytick_4">
     <g id="line2d_28">
      <g>
       <use xlink:href="#m2cf91da7da" x="38.27" y="367.476633" style="stroke: #000000; stroke-width: 0.8"/>
      </g>
     </g>
     <g id="text_29">
      <!-- 3 -->
      <g transform="translate(24.9075 371.275851) scale(0.1 -0.1)">
       <defs>
        <path id="DejaVuSans-33" d="M 2597 2516 
Q 3050 2419 3304 2112 
Q 3559 1806 3559 1356 
Q 3559 666 3084 287 
Q 2609 -91 1734 -91 
Q 1441 -91 1130 -33 
Q 819 25 488 141 
L 488 750 
Q 750 597 1062 519 
Q 1375 441 1716 441 
Q 2309 441 2620 675 
Q 2931 909 2931 1356 
Q 2931 1769 2642 2001 
Q 2353 2234 1838 2234 
L 1294 2234 
L 1294 2753 
L 1863 2753 
Q 2328 2753 2575 2939 
Q 2822 3125 2822 3475 
Q 2822 3834 2567 4026 
Q 2313 4219 1838 4219 
Q 1578 4219 1281 4162 
Q 984 4106 628 3988 
L 628 4550 
Q 988 4650 1302 4700 
Q 1616 4750 1894 4750 
Q 2613 4750 3031 4423 
Q 3450 4097 3450 3541 
Q 3450 3153 3228 2886 
Q 3006 2619 2597 2516 
z
" transform="scale(0.015625)"/>
       </defs>
       <use xlink:href="#DejaVuSans-33"/>
      </g>
     </g>
    </g>
    <g id="ytick_5">
     <g id="line2d_29">
      <g>
       <use xlink:href="#m2cf91da7da" x="38.27" y="299.317473" style="stroke: #000000; stroke-width: 0.8"/>
      </g>
     </g>
     <g id="text_30">
      <!-- 4 -->
      <g transform="translate(24.9075 303.116692) scale(0.1 -0.1)">
       <defs>
        <path id="DejaVuSans-34" d="M 2419 4116 
L 825 1625 
L 2419 1625 
L 2419 4116 
z
M 2253 4666 
L 3047 4666 
L 3047 1625 
L 3713 1625 
L 3713 1100 
L 3047 1100 
L 3047 0 
L 2419 0 
L 2419 1100 
L 313 1100 
L 313 1709 
L 2253 4666 
z
" transform="scale(0.015625)"/>
       </defs>
       <use xlink:href="#DejaVuSans-34"/>
      </g>
     </g>
    </g>
    <g id="ytick_6">
     <g id="line2d_30">
      <g>
       <use xlink:href="#m2cf91da7da" x="38.27" y="231.158314" style="stroke: #000000; stroke-width: 0.8"/>
      </g>
     </g>
     <g id="text_31">
      <!-- 5 -->
      <g transform="translate(24.9075 234.957533) scale(0.1 -0.1)">
       <defs>
        <path id="DejaVuSans-35" d="M 691 4666 
L 3169 4666 
L 3169 4134 
L 1269 4134 
L 1269 2991 
Q 1406 3038 1543 3061 
Q 1681 3084 1819 3084 
Q 2600 3084 3056 2656 
Q 3513 2228 3513 1497 
Q 3513 744 3044 326 
Q 2575 -91 1722 -91 
Q 1428 -91 1123 -41 
Q 819 9 494 109 
L 494 744 
Q 775 591 1075 516 
Q 1375 441 1709 441 
Q 2250 441 2565 725 
Q 2881 1009 2881 1497 
Q 2881 1984 2565 2268 
Q 2250 2553 1709 2553 
Q 1456 2553 1204 2497 
Q 953 2441 691 2322 
L 691 4666 
z
" transform="scale(0.015625)"/>
       </defs>
       <use xlink:href="#DejaVuSans-35"/>
      </g>
     </g>
    </g>
    <g id="ytick_7">
     <g id="line2d_31">
      <g>
       <use xlink:href="#m2cf91da7da" x="38.27" y="162.999155" style="stroke: #000000; stroke-width: 0.8"/>
      </g>
     </g>
     <g id="text_32">
      <!-- 6 -->
      <g transform="translate(24.9075 166.798374) scale(0.1 -0.1)">
       <defs>
        <path id="DejaVuSans-36" d="M 2113 2584 
Q 1688 2584 1439 2293 
Q 1191 2003 1191 1497 
Q 1191 994 1439 701 
Q 1688 409 2113 409 
Q 2538 409 2786 701 
Q 3034 994 3034 1497 
Q 3034 2003 2786 2293 
Q 2538 2584 2113 2584 
z
M 3366 4563 
L 3366 3988 
Q 3128 4100 2886 4159 
Q 2644 4219 2406 4219 
Q 1781 4219 1451 3797 
Q 1122 3375 1075 2522 
Q 1259 2794 1537 2939 
Q 1816 3084 2150 3084 
Q 2853 3084 3261 2657 
Q 3669 2231 3669 1497 
Q 3669 778 3244 343 
Q 2819 -91 2113 -91 
Q 1303 -91 875 529 
Q 447 1150 447 2328 
Q 447 3434 972 4092 
Q 1497 4750 2381 4750 
Q 2619 4750 2861 4703 
Q 3103 4656 3366 4563 
z
" transform="scale(0.015625)"/>
       </defs>
       <use xlink:href="#DejaVuSans-36"/>
      </g>
     </g>
    </g>
    <g id="ytick_8">
     <g id="line2d_32">
      <g>
       <use xlink:href="#m2cf91da7da" x="38.27" y="94.839996" style="stroke: #000000; stroke-width: 0.8"/>
      </g>
     </g>
     <g id="text_33">
      <!-- 7 -->
      <g transform="translate(24.9075 98.639214) scale(0.1 -0.1)">
       <defs>
        <path id="DejaVuSans-37" d="M 525 4666 
L 3525 4666 
L 3525 4397 
L 1831 0 
L 1172 0 
L 2766 4134 
L 525 4134 
L 525 4666 
z
" transform="scale(0.015625)"/>
       </defs>
       <use xlink:href="#DejaVuSans-37"/>
      </g>
     </g>
    </g>
    <g id="ytick_9">
     <g id="line2d_33">
      <g>
       <use xlink:href="#m2cf91da7da" x="38.27" y="26.680836" style="stroke: #000000; stroke-width: 0.8"/>
      </g>
     </g>
     <g id="text_34">
      <!-- 8 -->
      <g transform="translate(24.9075 30.480055) scale(0.1 -0.1)">
       <defs>
        <path id="DejaVuSans-38" d="M 2034 2216 
Q 1584 2216 1326 1975 
Q 1069 1734 1069 1313 
Q 1069 891 1326 650 
Q 1584 409 2034 409 
Q 2484 409 2743 651 
Q 3003 894 3003 1313 
Q 3003 1734 2745 1975 
Q 2488 2216 2034 2216 
z
M 1403 2484 
Q 997 2584 770 2862 
Q 544 3141 544 3541 
Q 544 4100 942 4425 
Q 1341 4750 2034 4750 
Q 2731 4750 3128 4425 
Q 3525 4100 3525 3541 
Q 3525 3141 3298 2862 
Q 3072 2584 2669 2484 
Q 3125 2378 3379 2068 
Q 3634 1759 3634 1313 
Q 3634 634 3220 271 
Q 2806 -91 2034 -91 
Q 1263 -91 848 271 
Q 434 634 434 1313 
Q 434 1759 690 2068 
Q 947 2378 1403 2484 
z
M 1172 3481 
Q 1172 3119 1398 2916 
Q 1625 2713 2034 2713 
Q 2441 2713 2670 2916 
Q 2900 3119 2900 3481 
Q 2900 3844 2670 4047 
Q 2441 4250 2034 4250 
Q 1625 4250 1398 4047 
Q 1172 3844 1172 3481 
z
" transform="scale(0.015625)"/>
       </defs>
       <use xlink:href="#DejaVuSans-38"/>
      </g>
     </g>
    </g>
    <g id="text_35">
     <!-- Number of Reads -->
     <g transform="translate(18.827813 341.949399) rotate(-90) scale(0.1 -0.1)">
      <defs>
       <path id="DejaVuSans-4e" d="M 628 4666 
L 1478 4666 
L 3547 763 
L 3547 4666 
L 4159 4666 
L 4159 0 
L 3309 0 
L 1241 3903 
L 1241 0 
L 628 0 
L 628 4666 
z
" transform="scale(0.015625)"/>
       <path id="DejaVuSans-75" d="M 544 1381 
L 544 3500 
L 1119 3500 
L 1119 1403 
Q 1119 906 1312 657 
Q 1506 409 1894 409 
Q 2359 409 2629 706 
Q 2900 1003 2900 1516 
L 2900 3500 
L 3475 3500 
L 3475 0 
L 2900 0 
L 2900 538 
Q 2691 219 2414 64 
Q 2138 -91 1772 -91 
Q 1169 -91 856 284 
Q 544 659 544 1381 
z
M 1991 3584 
L 1991 3584 
z
" transform="scale(0.015625)"/>
       <path id="DejaVuSans-6d" d="M 3328 2828 
Q 3544 3216 3844 3400 
Q 4144 3584 4550 3584 
Q 5097 3584 5394 3201 
Q 5691 2819 5691 2113 
L 5691 0 
L 5113 0 
L 5113 2094 
Q 5113 2597 4934 2840 
Q 4756 3084 4391 3084 
Q 3944 3084 3684 2787 
Q 3425 2491 3425 1978 
L 3425 0 
L 2847 0 
L 2847 2094 
Q 2847 2600 2669 2842 
Q 2491 3084 2119 3084 
Q 1678 3084 1418 2786 
Q 1159 2488 1159 1978 
L 1159 0 
L 581 0 
L 581 3500 
L 1159 3500 
L 1159 2956 
Q 1356 3278 1631 3431 
Q 1906 3584 2284 3584 
Q 2666 3584 2933 3390 
Q 3200 3197 3328 2828 
z
" transform="scale(0.015625)"/>
       <path id="DejaVuSans-62" d="M 3116 1747 
Q 3116 2381 2855 2742 
Q 2594 3103 2138 3103 
Q 1681 3103 1420 2742 
Q 1159 2381 1159 1747 
Q 1159 1113 1420 752 
Q 1681 391 2138 391 
Q 2594 391 2855 752 
Q 3116 1113 3116 1747 
z
M 1159 2969 
Q 1341 3281 1617 3432 
Q 1894 3584 2278 3584 
Q 2916 3584 3314 3078 
Q 3713 2572 3713 1747 
Q 3713 922 3314 415 
Q 2916 -91 2278 -91 
Q 1894 -91 1617 61 
Q 1341 213 1159 525 
L 1159 0 
L 581 0 
L 581 4863 
L 1159 4863 
L 1159 2969 
z
" transform="scale(0.015625)"/>
       <path id="DejaVuSans-6f" d="M 1959 3097 
Q 1497 3097 1228 2736 
Q 959 2375 959 1747 
Q 959 1119 1226 758 
Q 1494 397 1959 397 
Q 2419 397 2687 759 
Q 2956 1122 2956 1747 
Q 2956 2369 2687 2733 
Q 2419 3097 1959 3097 
z
M 1959 3584 
Q 2709 3584 3137 3096 
Q 3566 2609 3566 1747 
Q 3566 888 3137 398 
Q 2709 -91 1959 -91 
Q 1206 -91 779 398 
Q 353 888 353 1747 
Q 353 2609 779 3096 
Q 1206 3584 1959 3584 
z
" transform="scale(0.015625)"/>
       <path id="DejaVuSans-66" d="M 2375 4863 
L 2375 4384 
L 1825 4384 
Q 1516 4384 1395 4259 
Q 1275 4134 1275 3809 
L 1275 3500 
L 2222 3500 
L 2222 3053 
L 1275 3053 
L 1275 0 
L 697 0 
L 697 3053 
L 147 3053 
L 147 3500 
L 697 3500 
L 697 3744 
Q 697 4328 969 4595 
Q 1241 4863 1831 4863 
L 2375 4863 
z
" transform="scale(0.015625)"/>
       <path id="DejaVuSans-52" d="M 2841 2188 
Q 3044 2119 3236 1894 
Q 3428 1669 3622 1275 
L 4263 0 
L 3584 0 
L 2988 1197 
Q 2756 1666 2539 1819 
Q 2322 1972 1947 1972 
L 1259 1972 
L 1259 0 
L 628 0 
L 628 4666 
L 2053 4666 
Q 2853 4666 3247 4331 
Q 3641 3997 3641 3322 
Q 3641 2881 3436 2590 
Q 3231 2300 2841 2188 
z
M 1259 4147 
L 1259 2491 
L 2053 2491 
Q 2509 2491 2742 2702 
Q 2975 2913 2975 3322 
Q 2975 3731 2742 3939 
Q 2509 4147 2053 4147 
L 1259 4147 
z
" transform="scale(0.015625)"/>
       <path id="DejaVuSans-73" d="M 2834 3397 
L 2834 2853 
Q 2591 2978 2328 3040 
Q 2066 3103 1784 3103 
Q 1356 3103 1142 2972 
Q 928 2841 928 2578 
Q 928 2378 1081 2264 
Q 1234 2150 1697 2047 
L 1894 2003 
Q 2506 1872 2764 1633 
Q 3022 1394 3022 966 
Q 3022 478 2636 193 
Q 2250 -91 1575 -91 
Q 1294 -91 989 -36 
Q 684 19 347 128 
L 347 722 
Q 666 556 975 473 
Q 1284 391 1588 391 
Q 1994 391 2212 530 
Q 2431 669 2431 922 
Q 2431 1156 2273 1281 
Q 2116 1406 1581 1522 
L 1381 1569 
Q 847 1681 609 1914 
Q 372 2147 372 2553 
Q 372 3047 722 3315 
Q 1072 3584 1716 3584 
Q 2034 3584 2315 3537 
Q 2597 3491 2834 3397 
z
" transform="scale(0.015625)"/>
      </defs>
      <use xlink:href="#DejaVuSans-4e"/>
      <use xlink:href="#DejaVuSans-75" transform="translate(74.804688 0)"/>
      <use xlink:href="#DejaVuSans-6d" transform="translate(138.183594 0)"/>
      <use xlink:href="#DejaVuSans-62" transform="translate(235.595703 0)"/>
      <use xlink:href="#DejaVuSans-65" transform="translate(299.072266 0)"/>
      <use xlink:href="#DejaVuSans-72" transform="translate(360.595703 0)"/>
      <use xlink:href="#DejaVuSans-20" transform="translate(401.708984 0)"/>
      <use xlink:href="#DejaVuSans-6f" transform="translate(433.496094 0)"/>
      <use xlink:href="#DejaVuSans-66" transform="translate(494.677734 0)"/>
      <use xlink:href="#DejaVuSans-20" transform="translate(529.882812 0)"/>
      <use xlink:href="#DejaVuSans-52" transform="translate(561.669922 0)"/>
      <use xlink:href="#DejaVuSans-65" transform="translate(626.652344 0)"/>
      <use xlink:href="#DejaVuSans-61" transform="translate(688.175781 0)"/>
      <use xlink:href="#DejaVuSans-64" transform="translate(749.455078 0)"/>
      <use xlink:href="#DejaVuSans-73" transform="translate(812.931641 0)"/>
     </g>
    </g>
    <g id="text_36">
     <!-- 1e7 -->
     <g transform="translate(38.27 22.44) scale(0.1 -0.1)">
      <use xlink:href="#DejaVuSans-31"/>
      <use xlink:href="#DejaVuSans-65" transform="translate(63.623047 0)"/>
      <use xlink:href="#DejaVuSans-37" transform="translate(125.146484 0)"/>
     </g>
    </g>
   </g>
   <g id="patch_27">
    <path d="M 38.27 571.95411 
L 38.27 25.44 
" style="fill: none; stroke: #000000; stroke-width: 0.8; stroke-linejoin: miter; stroke-linecap: square"/>
   </g>
   <g id="patch_28">
    <path d="M 853.2 571.95411 
L 853.2 25.44 
" style="fill: none; stroke: #000000; stroke-width: 0.8; stroke-linejoin: miter; stroke-linecap: square"/>
   </g>
   <g id="patch_29">
    <path d="M 38.27 571.95411 
L 853.2 571.95411 
" style="fill: none; stroke: #000000; stroke-width: 0.8; stroke-linejoin: miter; stroke-linecap: square"/>
   </g>
   <g id="patch_30">
    <path d="M 38.27 25.44 
L 853.2 25.44 
" style="fill: none; stroke: #000000; stroke-width: 0.8; stroke-linejoin: miter; stroke-linecap: square"/>
   </g>
   <g id="text_37">
    <!-- Number of Dual-Matched Index Pairs -->
    <g transform="translate(335.678125 19.44) scale(0.12 -0.12)">
     <defs>
      <path id="DejaVuSans-44" d="M 1259 4147 
L 1259 519 
L 2022 519 
Q 2988 519 3436 956 
Q 3884 1394 3884 2338 
Q 3884 3275 3436 3711 
Q 2988 4147 2022 4147 
L 1259 4147 
z
M 628 4666 
L 1925 4666 
Q 3281 4666 3915 4102 
Q 4550 3538 4550 2338 
Q 4550 1131 3912 565 
Q 3275 0 1925 0 
L 628 0 
L 628 4666 
z
" transform="scale(0.015625)"/>
      <path id="DejaVuSans-6c" d="M 603 4863 
L 1178 4863 
L 1178 0 
L 603 0 
L 603 4863 
z
" transform="scale(0.015625)"/>
      <path id="DejaVuSans-4d" d="M 628 4666 
L 1569 4666 
L 2759 1491 
L 3956 4666 
L 4897 4666 
L 4897 0 
L 4281 0 
L 4281 4097 
L 3078 897 
L 2444 897 
L 1241 4097 
L 1241 0 
L 628 0 
L 628 4666 
z
" transform="scale(0.015625)"/>
      <path id="DejaVuSans-74" d="M 1172 4494 
L 1172 3500 
L 2356 3500 
L 2356 3053 
L 1172 3053 
L 1172 1153 
Q 1172 725 1289 603 
Q 1406 481 1766 481 
L 2356 481 
L 2356 0 
L 1766 0 
Q 1100 0 847 248 
Q 594 497 594 1153 
L 594 3053 
L 172 3053 
L 172 3500 
L 594 3500 
L 594 4494 
L 1172 4494 
z
" transform="scale(0.015625)"/>
      <path id="DejaVuSans-63" d="M 3122 3366 
L 3122 2828 
Q 2878 2963 2633 3030 
Q 2388 3097 2138 3097 
Q 1578 3097 1268 2742 
Q 959 2388 959 1747 
Q 959 1106 1268 751 
Q 1578 397 2138 397 
Q 2388 397 2633 464 
Q 2878 531 3122 666 
L 3122 134 
Q 2881 22 2623 -34 
Q 2366 -91 2075 -91 
Q 1284 -91 818 406 
Q 353 903 353 1747 
Q 353 2603 823 3093 
Q 1294 3584 2113 3584 
Q 2378 3584 2631 3529 
Q 2884 3475 3122 3366 
z
" transform="scale(0.015625)"/>
      <path id="DejaVuSans-68" d="M 3513 2113 
L 3513 0 
L 2938 0 
L 2938 2094 
Q 2938 2591 2744 2837 
Q 2550 3084 2163 3084 
Q 1697 3084 1428 2787 
Q 1159 2491 1159 1978 
L 1159 0 
L 581 0 
L 581 4863 
L 1159 4863 
L 1159 2956 
Q 1366 3272 1645 3428 
Q 1925 3584 2291 3584 
Q 2894 3584 3203 3211 
Q 3513 2838 3513 2113 
z
" transform="scale(0.015625)"/>
     </defs>
     <use xlink:href="#DejaVuSans-4e"/>
     <use xlink:href="#DejaVuSans-75" transform="translate(74.804688 0)"/>
     <use xlink:href="#DejaVuSans-6d" transform="translate(138.183594 0)"/>
     <use xlink:href="#DejaVuSans-62" transform="translate(235.595703 0)"/>
     <use xlink:href="#DejaVuSans-65" transform="translate(299.072266 0)"/>
     <use xlink:href="#DejaVuSans-72" transform="translate(360.595703 0)"/>
     <use xlink:href="#DejaVuSans-20" transform="translate(401.708984 0)"/>
     <use xlink:href="#DejaVuSans-6f" transform="translate(433.496094 0)"/>
     <use xlink:href="#DejaVuSans-66" transform="translate(494.677734 0)"/>
     <use xlink:href="#DejaVuSans-20" transform="translate(529.882812 0)"/>
     <use xlink:href="#DejaVuSans-44" transform="translate(561.669922 0)"/>
     <use xlink:href="#DejaVuSans-75" transform="translate(638.671875 0)"/>
     <use xlink:href="#DejaVuSans-61" transform="translate(702.050781 0)"/>
     <use xlink:href="#DejaVuSans-6c" transform="translate(763.330078 0)"/>
     <use xlink:href="#DejaVuSans-2d" transform="translate(791.113281 0)"/>
     <use xlink:href="#DejaVuSans-4d" transform="translate(827.197266 0)"/>
     <use xlink:href="#DejaVuSans-61" transform="translate(913.476562 0)"/>
     <use xlink:href="#DejaVuSans-74" transform="translate(974.755859 0)"/>
     <use xlink:href="#DejaVuSans-63" transform="translate(1013.964844 0)"/>
     <use xlink:href="#DejaVuSans-68" transform="translate(1068.945312 0)"/>
     <use xlink:href="#DejaVuSans-65" transform="translate(1132.324219 0)"/>
     <use xlink:href="#DejaVuSans-64" transform="translate(1193.847656 0)"/>
     <use xlink:href="#DejaVuSans-20" transform="translate(1257.324219 0)"/>
     <use xlink:href="#DejaVuSans-49" transform="translate(1289.111328 0)"/>
     <use xlink:href="#DejaVuSans-6e" transform="translate(1318.603516 0)"/>
     <use xlink:href="#DejaVuSans-64" transform="translate(1381.982422 0)"/>
     <use xlink:href="#DejaVuSans-65" transform="translate(1445.458984 0)"/>
     <use xlink:href="#DejaVuSans-78" transform="translate(1505.232422 0)"/>
     <use xlink:href="#DejaVuSans-20" transform="translate(1564.412109 0)"/>
     <use xlink:href="#DejaVuSans-50" transform="translate(1596.199219 0)"/>
     <use xlink:href="#DejaVuSans-61" transform="translate(1652.001953 0)"/>
     <use xlink:href="#DejaVuSans-69" transform="translate(1713.28125 0)"/>
     <use xlink:href="#DejaVuSans-72" transform="translate(1741.064453 0)"/>
     <use xlink:href="#DejaVuSans-73" transform="translate(1782.177734 0)"/>
    </g>
   </g>
  </g>
 </g>
 <defs>
  <clipPath id="p2c09241217">
   <rect x="38.27" y="25.44" width="814.93" height="546.51411"/>
  </clipPath>
 </defs>
</svg>
